<svg width="238" height="321" viewBox="0 0 238 321" fill="none" xmlns="http://www.w3.org/2000/svg">
<g filter="url(#filter0_d_5_2255)">
<rect x="0.999756" y="5.93341" width="236.001" height="307.133" fill="white"/>
</g>
<path d="M22.1936 29.1338V27.8779H29.6772V29.1338H26.6602V37.5475H25.206V29.1338H22.1936ZM33.2207 37.6939C32.5408 37.6939 31.9475 37.5381 31.4407 37.2265C30.934 36.9149 30.5405 36.4789 30.2603 35.9186C29.9802 35.3583 29.8401 34.7036 29.8401 33.9545C29.8401 33.2022 29.9802 32.5443 30.2603 31.9809C30.5405 31.4174 30.934 30.9799 31.4407 30.6683C31.9475 30.3567 32.5408 30.2009 33.2207 30.2009C33.9006 30.2009 34.494 30.3567 35.0008 30.6683C35.5075 30.9799 35.901 31.4174 36.1811 31.9809C36.4613 32.5443 36.6014 33.2022 36.6014 33.9545C36.6014 34.7036 36.4613 35.3583 36.1811 35.9186C35.901 36.4789 35.5075 36.9149 35.0008 37.2265C34.494 37.5381 33.9006 37.6939 33.2207 37.6939ZM33.2255 36.5088C33.6661 36.5088 34.0313 36.3923 34.3209 36.1594C34.6104 35.9265 34.8245 35.6164 34.963 35.2293C35.1046 34.8421 35.1755 34.4156 35.1755 33.9497C35.1755 33.487 35.1046 33.0621 34.963 32.6749C34.8245 32.2846 34.6104 31.9714 34.3209 31.7354C34.0313 31.4993 33.6661 31.3812 33.2255 31.3812C32.7816 31.3812 32.4134 31.4993 32.1206 31.7354C31.831 31.9714 31.6154 32.2846 31.4738 32.6749C31.3353 33.0621 31.266 33.487 31.266 33.9497C31.266 34.4156 31.3353 34.8421 31.4738 35.2293C31.6154 35.6164 31.831 35.9265 32.1206 36.1594C32.4134 36.3923 32.7816 36.5088 33.2255 36.5088ZM40.892 37.6892C40.3066 37.6892 39.7841 37.5397 39.3245 37.2406C38.8681 36.9385 38.5092 36.5088 38.248 35.9517C37.9899 35.3914 37.8608 34.7194 37.8608 33.9356C37.8608 33.1518 37.9914 32.4814 38.2527 31.9242C38.5171 31.3671 38.8791 30.9406 39.3387 30.6447C39.7982 30.3488 40.3192 30.2009 40.9015 30.2009C41.3516 30.2009 41.7136 30.2764 41.9874 30.4275C42.2644 30.5754 42.4785 30.7486 42.6296 30.9469C42.7838 31.1452 42.9034 31.3199 42.9884 31.4709H43.0734V27.8779H44.4851V37.5475H43.1064V36.4191H42.9884C42.9034 36.5733 42.7806 36.7496 42.6201 36.9479C42.4627 37.1462 42.2455 37.3193 41.9685 37.4673C41.6915 37.6152 41.3327 37.6892 40.892 37.6892ZM41.2037 36.4852C41.6097 36.4852 41.9528 36.3782 42.233 36.1641C42.5162 35.9469 42.7303 35.6463 42.8751 35.2623C43.023 34.8783 43.097 34.4313 43.097 33.9214C43.097 33.4178 43.0246 32.9771 42.8798 32.5994C42.735 32.2217 42.5225 31.9274 42.2424 31.7165C41.9623 31.5056 41.616 31.4001 41.2037 31.4001C40.7787 31.4001 40.4246 31.5103 40.1413 31.7306C39.858 31.951 39.644 32.2516 39.4992 32.6324C39.3575 33.0133 39.2867 33.443 39.2867 33.9214C39.2867 34.4062 39.3591 34.8421 39.5039 35.2293C39.6487 35.6164 39.8627 35.9233 40.146 36.15C40.4325 36.3735 40.785 36.4852 41.2037 36.4852ZM48.6105 37.7081C48.151 37.7081 47.7355 37.6231 47.3641 37.4531C46.9926 37.28 46.6983 37.0298 46.4811 36.7024C46.2671 36.375 46.1601 35.9737 46.1601 35.4984C46.1601 35.0892 46.2388 34.7524 46.3962 34.488C46.5535 34.2236 46.766 34.0143 47.0336 33.86C47.3011 33.7058 47.6001 33.5893 47.9306 33.5106C48.2612 33.432 48.598 33.3721 48.9411 33.3312C49.3754 33.2809 49.728 33.2399 49.9987 33.2085C50.2694 33.1738 50.4661 33.1188 50.5889 33.0432C50.7116 32.9677 50.773 32.8449 50.773 32.6749V32.6419C50.773 32.2295 50.6565 31.91 50.4236 31.6834C50.1938 31.4568 49.8507 31.3435 49.3943 31.3435C48.919 31.3435 48.5444 31.4489 48.2706 31.6598C47.9999 31.8676 47.8126 32.0989 47.7087 32.3539L46.382 32.0517C46.5394 31.611 46.7692 31.2553 47.0713 30.9846C47.3767 30.7108 47.7276 30.5125 48.1242 30.3897C48.5208 30.2638 48.9379 30.2009 49.3754 30.2009C49.665 30.2009 49.9719 30.2355 50.2961 30.3047C50.6235 30.3708 50.9288 30.4936 51.2121 30.673C51.4985 30.8524 51.733 31.109 51.9156 31.4426C52.0982 31.7731 52.1895 32.2028 52.1895 32.7316V37.5475H50.8108V36.556H50.7541C50.6628 36.7386 50.5259 36.918 50.3433 37.0943C50.1608 37.2706 49.9263 37.4169 49.6398 37.5334C49.3534 37.6498 49.0103 37.7081 48.6105 37.7081ZM48.9174 36.5749C49.3078 36.5749 49.6414 36.4978 49.9184 36.3436C50.1986 36.1893 50.411 35.9879 50.5558 35.7392C50.7038 35.4874 50.7777 35.2183 50.7777 34.9318V33.997C50.7274 34.0473 50.6298 34.0945 50.485 34.1386C50.3433 34.1795 50.1812 34.2157 49.9987 34.2472C49.8161 34.2755 49.6383 34.3023 49.4651 34.3275C49.292 34.3495 49.1472 34.3684 49.0308 34.3841C48.7569 34.4187 48.5067 34.477 48.28 34.5588C48.0566 34.6407 47.8771 34.7587 47.7418 34.9129C47.6096 35.064 47.5435 35.2655 47.5435 35.5173C47.5435 35.8667 47.6725 36.1311 47.9306 36.3105C48.1888 36.4868 48.5177 36.5749 48.9174 36.5749ZM54.7025 40.2671C54.4916 40.2671 54.2996 40.2498 54.1265 40.2152C53.9533 40.1837 53.8243 40.1491 53.7393 40.1113L54.0793 38.9546C54.3374 39.0238 54.5671 39.0537 54.7686 39.0443C54.97 39.0348 55.1479 38.9593 55.3021 38.8176C55.4595 38.676 55.598 38.4446 55.7176 38.1236L55.8923 37.642L53.2388 30.2953H54.7497L56.5864 35.9233H56.6619L58.4986 30.2953H60.0142L57.0255 38.5155C56.887 38.8932 56.7107 39.2127 56.4967 39.4739C56.2826 39.7383 56.0277 39.9366 55.7318 40.0688C55.4359 40.201 55.0928 40.2671 54.7025 40.2671ZM64.4961 29.1338V27.8779H71.9797V29.1338H68.9627V37.5475H67.5084V29.1338H64.4961ZM74.6438 37.7081C74.1843 37.7081 73.7688 37.6231 73.3974 37.4531C73.0259 37.28 72.7316 37.0298 72.5144 36.7024C72.3004 36.375 72.1934 35.9737 72.1934 35.4984C72.1934 35.0892 72.2721 34.7524 72.4295 34.488C72.5868 34.2236 72.7993 34.0143 73.0669 33.86C73.3344 33.7058 73.6334 33.5893 73.9639 33.5106C74.2945 33.432 74.6313 33.3721 74.9744 33.3312C75.4087 33.2809 75.7613 33.2399 76.032 33.2085C76.3027 33.1738 76.4994 33.1188 76.6222 33.0432C76.7449 32.9677 76.8063 32.8449 76.8063 32.6749V32.6419C76.8063 32.2295 76.6898 31.91 76.4569 31.6834C76.2271 31.4568 75.884 31.3435 75.4276 31.3435C74.9523 31.3435 74.5777 31.4489 74.3039 31.6598C74.0332 31.8676 73.8459 32.0989 73.742 32.3539L72.4153 32.0517C72.5727 31.611 72.8025 31.2553 73.1046 30.9846C73.41 30.7108 73.7609 30.5125 74.1575 30.3897C74.5541 30.2638 74.9712 30.2009 75.4087 30.2009C75.6983 30.2009 76.0052 30.2355 76.3294 30.3047C76.6568 30.3708 76.9621 30.4936 77.2454 30.673C77.5318 30.8524 77.7663 31.109 77.9489 31.4426C78.1315 31.7731 78.2228 32.2028 78.2228 32.7316V37.5475H76.8441V36.556H76.7874C76.6961 36.7386 76.5592 36.918 76.3766 37.0943C76.1941 37.2706 75.9596 37.4169 75.6731 37.5334C75.3867 37.6498 75.0436 37.7081 74.6438 37.7081ZM74.9507 36.5749C75.3411 36.5749 75.6747 36.4978 75.9517 36.3436C76.2319 36.1893 76.4443 35.9879 76.5891 35.7392C76.7371 35.4874 76.811 35.2183 76.811 34.9318V33.997C76.7607 34.0473 76.6631 34.0945 76.5183 34.1386C76.3766 34.1795 76.2145 34.2157 76.032 34.2472C75.8494 34.2755 75.6716 34.3023 75.4984 34.3275C75.3253 34.3495 75.1805 34.3684 75.0641 34.3841C74.7902 34.4187 74.54 34.477 74.3133 34.5588C74.0899 34.6407 73.9104 34.7587 73.7751 34.9129C73.6429 35.064 73.5768 35.2655 73.5768 35.5173C73.5768 35.8667 73.7058 36.1311 73.9639 36.3105C74.2221 36.4868 74.551 36.5749 74.9507 36.5749ZM85.5376 32.0659L84.2581 32.2925C84.2045 32.1288 84.1196 31.973 84.0031 31.8251C83.8898 31.6771 83.7355 31.5559 83.5404 31.4615C83.3452 31.3671 83.1013 31.3199 82.8085 31.3199C82.4088 31.3199 82.0751 31.4096 81.8076 31.589C81.54 31.7653 81.4063 31.9935 81.4063 32.2736C81.4063 32.516 81.496 32.7111 81.6754 32.8591C81.8548 33.007 82.1444 33.1282 82.5441 33.2226L83.6962 33.487C84.3635 33.6413 84.8608 33.8789 85.1882 34.2C85.5156 34.521 85.6792 34.9381 85.6792 35.4512C85.6792 35.8856 85.5533 36.2727 85.3015 36.6127C85.0528 36.9495 84.705 37.2139 84.2581 37.4059C83.8142 37.5979 83.2996 37.6939 82.7141 37.6939C81.902 37.6939 81.2394 37.5208 80.7264 37.1745C80.2133 36.8252 79.8985 36.3294 79.782 35.6873L81.1466 35.4795C81.2316 35.8352 81.4063 36.1043 81.6707 36.2869C81.9351 36.4663 82.2797 36.556 82.7047 36.556C83.1674 36.556 83.5372 36.46 83.8142 36.268C84.0912 36.0729 84.2297 35.8352 84.2297 35.5551C84.2297 35.3284 84.1447 35.138 83.9748 34.9838C83.8079 34.8295 83.5514 34.7131 83.2052 34.6344L81.9776 34.3652C81.3008 34.211 80.8003 33.9655 80.4761 33.6287C80.1551 33.2919 79.9945 32.8654 79.9945 32.3491C79.9945 31.9211 80.1141 31.5465 80.3534 31.2254C80.5926 30.9044 80.9231 30.6541 81.3449 30.4747C81.7667 30.2921 82.2498 30.2009 82.7944 30.2009C83.5782 30.2009 84.1951 30.3708 84.6452 30.7108C85.0953 31.0476 85.3928 31.4993 85.5376 32.0659ZM88.5298 35.0876L88.5204 33.3643H88.7659L91.6555 30.2953H93.3458L90.0502 33.7892H89.8283L88.5298 35.0876ZM87.2314 37.5475V27.8779H88.6432V37.5475H87.2314ZM91.8113 37.5475L89.2145 34.1008L90.1871 33.114L93.5441 37.5475H91.8113ZM100.067 32.0659L98.7874 32.2925C98.7339 32.1288 98.6489 31.973 98.5324 31.8251C98.4191 31.6771 98.2648 31.5559 98.0697 31.4615C97.8745 31.3671 97.6306 31.3199 97.3379 31.3199C96.9381 31.3199 96.6044 31.4096 96.3369 31.589C96.0693 31.7653 95.9356 31.9935 95.9356 32.2736C95.9356 32.516 96.0253 32.7111 96.2047 32.8591C96.3841 33.007 96.6737 33.1282 97.0734 33.2226L98.2255 33.487C98.8928 33.6413 99.3901 33.8789 99.7175 34.2C100.045 34.521 100.209 34.9381 100.209 35.4512C100.209 35.8856 100.083 36.2727 99.8308 36.6127C99.5822 36.9495 99.2343 37.2139 98.7874 37.4059C98.3435 37.5979 97.8289 37.6939 97.2434 37.6939C96.4313 37.6939 95.7687 37.5208 95.2557 37.1745C94.7426 36.8252 94.4278 36.3294 94.3114 35.6873L95.6759 35.4795C95.7609 35.8352 95.9356 36.1043 96.2 36.2869C96.4644 36.4663 96.809 36.556 97.234 36.556C97.6967 36.556 98.0665 36.46 98.3435 36.268C98.6205 36.0729 98.759 35.8352 98.759 35.5551C98.759 35.3284 98.674 35.138 98.5041 34.9838C98.3372 34.8295 98.0807 34.7131 97.7345 34.6344L96.5069 34.3652C95.8301 34.211 95.3296 33.9655 95.0054 33.6287C94.6844 33.2919 94.5238 32.8654 94.5238 32.3491C94.5238 31.9211 94.6434 31.5465 94.8827 31.2254C95.1219 30.9044 95.4524 30.6541 95.8742 30.4747C96.296 30.2921 96.7791 30.2009 97.3237 30.2009C98.1075 30.2009 98.7244 30.3708 99.1745 30.7108C99.6246 31.0476 99.9221 31.4993 100.067 32.0659Z" fill="black"/>
<path d="M28.9662 47.3606V62.8321H26.6243V49.7025H26.5336L22.832 52.1199V49.8838L26.6923 47.3606H28.9662ZM39.0211 47.3606V62.8321H36.6793V49.7025H36.5886L32.8869 52.1199V49.8838L36.7472 47.3606H39.0211Z" fill="black"/>
<circle cx="205.755" cy="32.525" r="7.97749" fill="#BDBDBD"/>
<rect x="204.426" y="30.7523" width="2.65916" height="7.09109" rx="1.32958" fill="white"/>
<rect x="204.426" y="27.2067" width="2.65916" height="2.65916" rx="1.32958" fill="white"/>
<path d="M0.999756 90.5082H237" stroke="#F0F0F0" stroke-width="1.32958"/>
<path d="M33.6122 287.309V281.507H35.5726C36.0278 281.507 36.3998 281.589 36.6888 281.753C36.9796 281.916 37.1949 282.136 37.3347 282.413C37.4744 282.691 37.5443 283.001 37.5443 283.343C37.5443 283.684 37.4744 283.995 37.3347 284.275C37.1968 284.554 36.9834 284.777 36.6944 284.943C36.4055 285.108 36.0353 285.19 35.5839 285.19H34.1788V284.566H35.5613C35.8729 284.566 36.1231 284.513 36.312 284.405C36.5009 284.297 36.6378 284.152 36.7228 283.969C36.8096 283.784 36.8531 283.575 36.8531 283.343C36.8531 283.11 36.8096 282.903 36.7228 282.719C36.6378 282.536 36.4999 282.393 36.3092 282.289C36.1184 282.183 35.8653 282.13 35.5499 282.13H34.3148V287.309H33.6122ZM40.3631 287.399C39.9438 287.399 39.5821 287.307 39.2781 287.122C38.9759 286.935 38.7426 286.674 38.5783 286.34C38.4159 286.004 38.3347 285.613 38.3347 285.167C38.3347 284.721 38.4159 284.328 38.5783 283.989C38.7426 283.647 38.9712 283.38 39.2639 283.19C39.5585 282.997 39.9022 282.901 40.2951 282.901C40.5217 282.901 40.7455 282.938 40.9665 283.014C41.1874 283.09 41.3886 283.212 41.5699 283.382C41.7512 283.55 41.8957 283.773 42.0033 284.051C42.111 284.328 42.1648 284.67 42.1648 285.076V285.36H38.8106V284.782H41.4849C41.4849 284.536 41.4358 284.317 41.3376 284.125C41.2413 283.932 41.1034 283.78 40.924 283.668C40.7465 283.557 40.5368 283.501 40.2951 283.501C40.0288 283.501 39.7984 283.567 39.6038 283.7C39.4112 283.83 39.2629 284 39.1591 284.209C39.0552 284.419 39.0033 284.644 39.0033 284.884V285.269C39.0033 285.598 39.0599 285.876 39.1732 286.105C39.2884 286.331 39.448 286.504 39.652 286.623C39.856 286.74 40.093 286.799 40.3631 286.799C40.5387 286.799 40.6973 286.774 40.839 286.725C40.9825 286.674 41.1062 286.599 41.2101 286.498C41.314 286.397 41.3942 286.27 41.4509 286.119L42.0968 286.3C42.0288 286.519 41.9146 286.712 41.754 286.878C41.5935 287.042 41.3952 287.171 41.1591 287.263C40.923 287.354 40.6577 287.399 40.3631 287.399ZM43.8504 284.691V287.309H43.1818V282.957H43.8277V283.637H43.8844C43.9864 283.416 44.1412 283.239 44.349 283.105C44.5567 282.969 44.8249 282.901 45.1535 282.901C45.4481 282.901 45.7059 282.961 45.9269 283.082C46.1479 283.201 46.3197 283.382 46.4425 283.626C46.5653 283.868 46.6266 284.174 46.6266 284.544V287.309H45.9581V284.589C45.9581 284.247 45.8693 283.981 45.6918 283.79C45.5142 283.598 45.2706 283.501 44.9609 283.501C44.7475 283.501 44.5567 283.548 44.3886 283.64C44.2224 283.733 44.0912 283.868 43.9949 284.045C43.8985 284.223 43.8504 284.438 43.8504 284.691ZM49.4914 287.399C49.1288 287.399 48.8087 287.308 48.5311 287.125C48.2534 286.939 48.0362 286.679 47.8795 286.343C47.7227 286.005 47.6444 285.605 47.6444 285.144C47.6444 284.687 47.7227 284.291 47.8795 283.955C48.0362 283.618 48.2544 283.359 48.5339 283.175C48.8134 282.992 49.1364 282.901 49.5028 282.901C49.786 282.901 50.0098 282.948 50.1742 283.042C50.3404 283.135 50.4669 283.241 50.5538 283.36C50.6425 283.477 50.7115 283.573 50.7606 283.649H50.8172V281.507H51.4858V287.309H50.8399V286.64H50.7606C50.7115 286.719 50.6416 286.82 50.5509 286.94C50.4603 287.059 50.3309 287.166 50.1628 287.261C49.9947 287.353 49.7709 287.399 49.4914 287.399ZM49.5821 286.799C49.8503 286.799 50.0769 286.729 50.262 286.589C50.4471 286.447 50.5878 286.252 50.6841 286.003C50.7804 285.752 50.8286 285.462 50.8286 285.133C50.8286 284.808 50.7813 284.524 50.6869 284.28C50.5925 284.035 50.4527 283.844 50.2676 283.708C50.0826 283.57 49.854 283.501 49.5821 283.501C49.2988 283.501 49.0627 283.574 48.8738 283.719C48.6869 283.863 48.5462 284.058 48.4517 284.306C48.3592 284.551 48.3129 284.827 48.3129 285.133C48.3129 285.443 48.3601 285.724 48.4546 285.977C48.5509 286.228 48.6925 286.429 48.8795 286.578C49.0684 286.725 49.3026 286.799 49.5821 286.799ZM52.8031 287.309V282.957H53.4717V287.309H52.8031ZM53.143 282.232C53.0127 282.232 52.9004 282.188 52.8059 282.099C52.7134 282.01 52.6671 281.904 52.6671 281.779C52.6671 281.654 52.7134 281.547 52.8059 281.459C52.9004 281.37 53.0127 281.326 53.143 281.326C53.2734 281.326 53.3848 281.37 53.4773 281.459C53.5718 281.547 53.619 281.654 53.619 281.779C53.619 281.904 53.5718 282.01 53.4773 282.099C53.3848 282.188 53.2734 282.232 53.143 282.232ZM55.3648 284.691V287.309H54.6962V282.957H55.3421V283.637H55.3988C55.5007 283.416 55.6556 283.239 55.8634 283.105C56.0711 282.969 56.3393 282.901 56.6679 282.901C56.9625 282.901 57.2203 282.961 57.4413 283.082C57.6623 283.201 57.8341 283.382 57.9569 283.626C58.0796 283.868 58.141 284.174 58.141 284.544V287.309H57.4724V284.589C57.4724 284.247 57.3837 283.981 57.2062 283.79C57.0286 283.598 56.785 283.501 56.4753 283.501C56.2619 283.501 56.0711 283.548 55.903 283.64C55.7368 283.733 55.6056 283.868 55.5092 284.045C55.4129 284.223 55.3648 284.438 55.3648 284.691ZM61.1191 289.031C60.7962 289.031 60.5185 288.99 60.2862 288.906C60.0539 288.825 59.8604 288.718 59.7055 288.584C59.5525 288.451 59.4307 288.31 59.34 288.159L59.8726 287.785C59.9331 287.864 60.0096 287.955 60.1021 288.057C60.1946 288.16 60.3212 288.25 60.4817 288.326C60.6441 288.403 60.8566 288.442 61.1191 288.442C61.4704 288.442 61.7603 288.357 61.9888 288.187C62.2173 288.017 62.3316 287.751 62.3316 287.388V286.504H62.2749C62.2258 286.583 62.156 286.682 62.0653 286.799C61.9765 286.914 61.8481 287.017 61.68 287.108C61.5138 287.196 61.2891 287.241 61.0058 287.241C60.6545 287.241 60.3391 287.158 60.0596 286.991C59.782 286.825 59.562 286.583 59.3995 286.266C59.239 285.949 59.1587 285.564 59.1587 285.11C59.1587 284.665 59.2371 284.277 59.3939 283.946C59.5506 283.614 59.7688 283.357 60.0483 283.175C60.3278 282.992 60.6507 282.901 61.0171 282.901C61.3004 282.901 61.5252 282.948 61.6914 283.042C61.8595 283.135 61.9879 283.241 62.0766 283.36C62.1673 283.477 62.2372 283.573 62.2863 283.649H62.3543V282.957H63.0002V287.433C63.0002 287.807 62.9152 288.111 62.7452 288.346C62.5771 288.582 62.3505 288.754 62.0653 288.864C61.782 288.975 61.4666 289.031 61.1191 289.031ZM61.0965 286.64C61.3646 286.64 61.5913 286.579 61.7764 286.456C61.9614 286.333 62.1021 286.157 62.1985 285.926C62.2948 285.696 62.3429 285.42 62.3429 285.099C62.3429 284.786 62.2957 284.509 62.2013 284.269C62.1069 284.029 61.9671 283.841 61.782 283.705C61.5969 283.569 61.3684 283.501 61.0965 283.501C60.8132 283.501 60.5771 283.573 60.3882 283.717C60.2013 283.86 60.0606 284.053 59.9661 284.294C59.8736 284.536 59.8273 284.804 59.8273 285.099C59.8273 285.401 59.8745 285.668 59.969 285.901C60.0653 286.131 60.2069 286.312 60.3939 286.445C60.5828 286.575 60.8169 286.64 61.0965 286.64Z" fill="black"/>
<circle cx="24.5997" cy="284.959" r="2.99156" fill="#3F9142"/>
<path d="M92.5748 287.309H90.7843V281.507H92.6541C93.2169 281.507 93.6985 281.623 94.0989 281.855C94.4992 282.086 94.8061 282.417 95.0196 282.85C95.233 283.28 95.3397 283.796 95.3397 284.396C95.3397 285.001 95.232 285.521 95.0167 285.957C94.8014 286.392 94.4879 286.726 94.0762 286.96C93.6645 287.193 93.164 287.309 92.5748 287.309ZM91.4869 286.685H92.5294C93.0091 286.685 93.4067 286.593 93.7221 286.408C94.0375 286.223 94.2726 285.959 94.4275 285.617C94.5823 285.276 94.6598 284.869 94.6598 284.396C94.6598 283.928 94.5833 283.525 94.4303 283.187C94.2773 282.847 94.0488 282.586 93.7447 282.405C93.4407 282.222 93.062 282.13 92.6087 282.13H91.4869V286.685ZM98.1953 287.399C97.8024 287.399 97.4578 287.306 97.1612 287.119C96.8666 286.932 96.6362 286.67 96.47 286.334C96.3057 285.998 96.2235 285.605 96.2235 285.156C96.2235 284.702 96.3057 284.307 96.47 283.969C96.6362 283.631 96.8666 283.368 97.1612 283.181C97.4578 282.994 97.8024 282.901 98.1953 282.901C98.5881 282.901 98.9318 282.994 99.2264 283.181C99.5229 283.368 99.7534 283.631 99.9177 283.969C100.084 284.307 100.167 284.702 100.167 285.156C100.167 285.605 100.084 285.998 99.9177 286.334C99.7534 286.67 99.5229 286.932 99.2264 287.119C98.9318 287.306 98.5881 287.399 98.1953 287.399ZM98.1953 286.799C98.4937 286.799 98.7392 286.722 98.9318 286.569C99.1244 286.416 99.267 286.215 99.3596 285.966C99.4521 285.717 99.4984 285.447 99.4984 285.156C99.4984 284.865 99.4521 284.594 99.3596 284.343C99.267 284.091 99.1244 283.888 98.9318 283.734C98.7392 283.579 98.4937 283.501 98.1953 283.501C97.8969 283.501 97.6513 283.579 97.4587 283.734C97.2661 283.888 97.1235 284.091 97.0309 284.343C96.9384 284.594 96.8921 284.865 96.8921 285.156C96.8921 285.447 96.9384 285.717 97.0309 285.966C97.1235 286.215 97.2661 286.416 97.4587 286.569C97.6513 286.722 97.8969 286.799 98.1953 286.799ZM101.856 284.691V287.309H101.188V282.957H101.833V283.637H101.89C101.992 283.416 102.147 283.239 102.355 283.105C102.562 282.969 102.831 282.901 103.159 282.901C103.454 282.901 103.712 282.961 103.933 283.082C104.154 283.201 104.325 283.382 104.448 283.626C104.571 283.868 104.632 284.174 104.632 284.544V287.309H103.964V284.589C103.964 284.247 103.875 283.981 103.697 283.79C103.52 283.598 103.276 283.501 102.967 283.501C102.753 283.501 102.562 283.548 102.394 283.64C102.228 283.733 102.097 283.868 102.001 284.045C101.904 284.223 101.856 284.438 101.856 284.691ZM107.678 287.399C107.259 287.399 106.897 287.307 106.593 287.122C106.291 286.935 106.058 286.674 105.894 286.34C105.731 286.004 105.65 285.613 105.65 285.167C105.65 284.721 105.731 284.328 105.894 283.989C106.058 283.647 106.287 283.38 106.579 283.19C106.874 282.997 107.218 282.901 107.61 282.901C107.837 282.901 108.061 282.938 108.282 283.014C108.503 283.09 108.704 283.212 108.885 283.382C109.067 283.55 109.211 283.773 109.319 284.051C109.426 284.328 109.48 284.67 109.48 285.076V285.36H106.126V284.782H108.8C108.8 284.536 108.751 284.317 108.653 284.125C108.557 283.932 108.419 283.78 108.239 283.668C108.062 283.557 107.852 283.501 107.61 283.501C107.344 283.501 107.114 283.567 106.919 283.7C106.727 283.83 106.578 284 106.474 284.209C106.371 284.419 106.319 284.644 106.319 284.884V285.269C106.319 285.598 106.375 285.876 106.489 286.105C106.604 286.331 106.763 286.504 106.967 286.623C107.171 286.74 107.408 286.799 107.678 286.799C107.854 286.799 108.013 286.774 108.154 286.725C108.298 286.674 108.422 286.599 108.525 286.498C108.629 286.397 108.71 286.27 108.766 286.119L109.412 286.3C109.344 286.519 109.23 286.712 109.069 286.878C108.909 287.042 108.711 287.171 108.474 287.263C108.238 287.354 107.973 287.399 107.678 287.399Z" fill="black"/>
<circle cx="81.7718" cy="284.959" r="2.99156" fill="#142E15"/>
<path d="M118.668 263.354C133.657 263.354 148.309 258.909 160.772 250.581C173.235 242.254 182.949 230.418 188.685 216.57C194.421 202.722 195.922 187.484 192.998 172.782C190.073 158.081 182.855 144.578 172.257 133.979C161.658 123.38 148.154 116.162 133.453 113.238C118.752 110.313 103.514 111.814 89.6656 117.55C75.8175 123.286 63.9813 133 55.6539 145.463C47.3264 157.926 42.8816 172.579 42.8816 187.568L74.3499 187.568C74.3499 178.802 76.9491 170.234 81.8188 162.946C86.6885 155.658 93.61 149.978 101.708 146.623C109.806 143.269 118.717 142.391 127.314 144.101C135.91 145.811 143.807 150.032 150.005 156.23C156.203 162.428 160.424 170.325 162.134 178.922C163.844 187.518 162.966 196.429 159.612 204.527C156.258 212.625 150.577 219.547 143.289 224.417C136.001 229.286 127.433 231.885 118.668 231.885L118.668 263.354Z" fill="#3F9142"/>
<path d="M42.8816 187.568C42.8816 197.52 44.8419 207.375 48.6505 216.57C52.4591 225.764 58.0415 234.119 65.0789 241.156C72.1163 248.194 80.4709 253.776 89.6657 257.585C98.8604 261.393 108.715 263.354 118.668 263.354L118.668 231.885C112.848 231.885 107.085 230.739 101.708 228.512C96.3312 226.285 91.4456 223.02 87.3303 218.905C83.215 214.79 79.9506 209.904 77.7234 204.527C75.4963 199.15 74.3499 193.387 74.3499 187.568L42.8816 187.568Z" fill="#142E15"/>
<defs>
<filter id="filter0_d_5_2255" x="-5.64815" y="0.615086" width="249.297" height="320.429" filterUnits="userSpaceOnUse" color-interpolation-filters="sRGB">
<feFlood flood-opacity="0" result="BackgroundImageFix"/>
<feColorMatrix in="SourceAlpha" type="matrix" values="0 0 0 0 0 0 0 0 0 0 0 0 0 0 0 0 0 0 127 0" result="hardAlpha"/>
<feOffset dy="1.32958"/>
<feGaussianBlur stdDeviation="3.32395"/>
<feComposite in2="hardAlpha" operator="out"/>
<feColorMatrix type="matrix" values="0 0 0 0 0 0 0 0 0 0 0 0 0 0 0 0 0 0 0.1 0"/>
<feBlend mode="normal" in2="BackgroundImageFix" result="effect1_dropShadow_5_2255"/>
<feBlend mode="normal" in="SourceGraphic" in2="effect1_dropShadow_5_2255" result="shape"/>
</filter>
</defs>
</svg>
